HIERARCHY
ROOT Hips
{
     OFFSET 3.63810 95.79970 -31.27830
     CHANNELS 6 Xposition Yposition Zposition Zrotation Xrotation Yrotation
     JOINT Spine
     {
          OFFSET -0.00000 11.89050 -0.00000
          CHANNELS 3 Zrotation Xrotation Yrotation
          JOINT Spine1
          {
               OFFSET -0.00000 25.65740 0.12766
               CHANNELS 3 Zrotation Xrotation Yrotation
               JOINT HEad
               {
                    OFFSET 0.00000 8.73416 0.01134
                    CHANNELS 3 Zrotation Xrotation Yrotation
                    End Site
                    {
                         OFFSET -0.29000 12.77420 2.51395
                    }
               }
               JOINT LeftShoulder1
               {
                    OFFSET 8.99000 -0.36225 -0.22000
                    CHANNELS 3 Zrotation Xrotation Yrotation
                    JOINT LeftArm
                    {
                         OFFSET 10.28270 -0.00338 0.32212
                         CHANNELS 3 Zrotation Xrotation Yrotation
                         JOINT LeftForeArm
                         {
                              OFFSET 32.76690 0.09914 -1.42434
                              CHANNELS 3 Zrotation Xrotation Yrotation
                              JOINT LeftHand
                              {
                                   OFFSET 27.56430 0.08536 1.02216
                                   CHANNELS 3 Zrotation Xrotation Yrotation
                                   End Site
                                   {
                                        OFFSET 16.74430 -0.60000 1.50291
                                   }
                              }
                         }
                    }
               }
               JOINT RightShoulder
               {
                    OFFSET -8.99000 -0.36225 -0.22000
                    CHANNELS 3 Zrotation Xrotation Yrotation
                    JOINT RightArm
                    {
                         OFFSET -10.28270 -0.00338 0.32212
                         CHANNELS 3 Zrotation Xrotation Yrotation
                         JOINT RightForeArm
                         {
                              OFFSET -32.89710 0.09914 -1.42434
                              CHANNELS 3 Zrotation Xrotation Yrotation
                              JOINT RightHand
                              {
                                   OFFSET -27.49210 0.08536 1.02216
                                   CHANNELS 3 Zrotation Xrotation Yrotation
                                   End Site
                                   {
                                        OFFSET -16.63120 -0.60000 1.50291
                                   }
                              }
                         }
                    }
               }
          }
     }
     JOINT LeftUpLeg
     {
          OFFSET 8.94580 -8.66707 0.10165
          CHANNELS 3 Zrotation Xrotation Yrotation
          JOINT LeftLeg
          {
               OFFSET -0.00000 -44.42270 1.37270
               CHANNELS 3 Zrotation Xrotation Yrotation
               JOINT LeftFoot
               {
                    OFFSET -0.25355 -42.09240 -1.46059
                    CHANNELS 3 Zrotation Xrotation Yrotation
                    JOINT LeftToes
                    {
                         OFFSET -0.04000 -4.41509 8.49910
                         CHANNELS 3 Zrotation Xrotation Yrotation
                         End Site
                         {
                              OFFSET 0.08000 -0.04745 9.77979
                         }
                    }
               }
          }
     }
     JOINT RightUpLeg
     {
          OFFSET -8.94580 -8.66707 0.10165
          CHANNELS 3 Zrotation Xrotation Yrotation
          JOINT RightLeg
          {
               OFFSET 0.00000 -44.42270 1.37270
               CHANNELS 3 Zrotation Xrotation Yrotation
               JOINT RightFoot
               {
                    OFFSET 0.25355 -42.09240 -1.46059
                    CHANNELS 3 Zrotation Xrotation Yrotation
                    JOINT RightToes
                    {
                         OFFSET 0.04000 -4.41509 8.49910
                         CHANNELS 3 Zrotation Xrotation Yrotation
                         End Site
                         {
                              OFFSET -0.08000 -0.13745 9.77979
                         }
                    }
               }
          }
     }
}
MOTION
Frames: 8
Frame Time: 0.01667
3.63810 95.79970 -31.27830 -0.33140 -0.63996 -49.77860 0.60207 4.87268 4.43344 -2.00483 10.05260 8.81393 -14.66880 -0.95331 46.08320 -0.00000 -0.00000 0.00000 -96.70090 -42.46560 -104.60600 -16.93620 27.06630 -77.42550 5.55594 9.67997 -0.87718 9.38351 0.79507 3.40651 61.82200 -13.97260 89.73610 13.94780 28.54200 87.30830 -5.55712 9.68432 0.87760 17.77270 -21.43240 12.48030 -1.81118 18.17090 15.18870 -15.37090 7.31479 1.95332 0.67019 -4.11539 -2.92069 -12.41930 6.86906 -1.28051 4.34828 23.32370 -6.69154 7.21226 -20.37180 0.56628 -7.07106 -8.52108 2.76852 
3.62197 95.78340 -32.15590 -0.28499 -0.68017 -49.66180 0.88193 4.75952 4.31667 -1.88193 9.89473 8.56729 -15.49940 -0.62717 46.96040 -0.00000 -0.00000 0.00000 -96.28840 -42.74450 -103.43300 -16.99810 27.37570 -77.62700 5.55594 9.67997 -0.87718 9.69903 0.81472 3.44597 60.76090 -14.01200 89.05410 13.87560 28.40940 87.29650 -5.55712 9.68432 0.87760 17.78010 -21.06510 12.52910 -1.22758 16.72870 13.70490 -17.12030 6.74597 2.10405 0.38472 -0.57031 -1.67100 -11.99410 6.60733 -1.58042 4.16876 23.48350 -6.49573 7.21625 -21.39120 0.62749 -6.95105 -8.15320 3.27207 
3.59025 95.76560 -32.98080 -0.20365 -0.73405 -49.48150 1.18365 4.60627 4.20180 -1.79961 9.66642 8.32316 -16.30450 -0.20171 47.88300 -0.00000 -0.00000 0.00000 -95.69930 -42.92210 -102.25000 -17.02000 27.61430 -77.78950 5.55594 9.67997 -0.87718 10.03010 0.83737 3.50080 59.75270 -14.12980 88.40060 13.84340 28.35210 87.29400 -5.55712 9.68432 0.87760 17.66490 -20.66480 12.70270 -0.52060 15.19670 10.97890 -19.14860 6.03740 2.25014 0.04270 2.74441 -0.46618 -11.53780 6.29552 -1.87824 3.86393 23.76880 -6.34667 7.06533 -22.26740 0.66001 -6.80670 -7.78580 3.68288 
3.55587 95.73520 -33.75050 -0.12555 -0.80417 -49.25550 1.50096 4.43338 4.09250 -1.73969 9.40483 8.08854 -17.11400 0.28658 48.82920 -0.00000 -0.00000 0.00000 -95.09900 -42.98790 -101.18400 -17.03960 27.82340 -77.89570 5.55594 9.67997 -0.87718 10.32400 0.85859 3.55573 58.83230 -14.30220 87.83750 13.83030 28.33930 87.30590 -5.55712 9.68432 0.87760 17.43390 -20.23130 12.94310 0.27030 13.61970 6.91394 -21.31460 5.23236 2.37081 -0.24851 5.43871 0.38537 -11.09330 5.92906 -2.12762 3.56427 24.21500 -6.33551 6.69429 -22.91440 0.64676 -6.76214 -7.58205 4.01742 
3.52736 95.67930 -34.45530 -0.08432 -0.89342 -48.96640 1.82554 4.26173 3.98459 -1.68242 9.14553 7.85415 -17.93430 0.76991 49.78820 -0.00000 -0.00000 0.00000 -94.60030 -42.92680 -100.32700 -17.07830 28.01920 -77.93640 5.55594 9.67997 -0.87718 10.60160 0.87941 3.61125 57.96280 -14.53570 87.39740 13.81990 28.34270 87.33260 -5.55712 9.68432 0.87760 17.07930 -19.83020 13.12030 1.11376 12.16650 1.74219 -23.40790 4.20459 2.40967 -0.43460 7.49351 0.82340 -10.69470 5.52661 -2.34044 3.37176 24.83110 -6.55080 6.01420 -23.21200 0.56754 -7.01232 -7.82177 4.25358 
3.50616 95.59760 -35.09260 -0.08771 -1.01520 -48.60080 2.12358 4.11402 3.87569 -1.62369 8.92535 7.61656 -18.74230 1.18361 50.73830 -0.00000 -0.00000 0.00000 -94.23000 -42.73480 -99.71260 -17.12400 28.17750 -77.92160 5.55594 9.67997 -0.87718 10.89900 0.90236 3.67303 57.13780 -14.85520 87.08340 13.82950 28.38730 87.36440 -5.55712 9.68432 0.87760 16.59680 -19.53660 13.09100 1.98045 11.02450 -3.94955 -25.18210 2.82453 2.30389 -0.57427 9.16746 1.10567 -10.37420 5.12951 -2.56031 3.32543 25.56520 -7.00795 5.00981 -23.10060 0.42191 -7.67080 -8.67490 4.35637 
3.48764 95.50680 -35.66960 -0.12652 -1.19140 -48.19350 2.34615 4.01426 3.77541 -1.57410 8.78280 7.40089 -19.51140 1.48849 51.64350 -0.00000 -0.00000 0.00000 -93.97360 -42.42890 -99.32400 -17.15090 28.27330 -77.87790 5.55594 9.67997 -0.87718 11.16620 0.92291 3.72607 56.47000 -15.24440 86.88750 13.89270 28.53080 87.39570 -5.55712 9.68432 0.87760 16.00800 -19.34110 12.79960 2.82796 10.22780 -9.36791 -26.43570 1.22493 2.06113 -0.72627 10.61760 1.43036 -10.16320 4.79258 -2.80150 3.41935 26.31920 -7.62433 3.81013 -22.65510 0.24192 -8.66030 -10.02780 4.31187 
3.46304 95.41980 -36.18550 -0.19877 -1.43986 -47.82500 2.47690 3.97448 3.70351 -1.54240 8.73670 7.25377 -20.21530 1.67513 52.47660 -0.00000 -0.00000 0.00000 -93.82160 -42.04660 -99.12350 -17.14940 28.31400 -77.82630 5.55594 9.67997 -0.87718 11.28370 0.93049 3.73869 56.11680 -15.63160 86.79190 14.02020 28.79510 87.43230 -5.55712 9.68432 0.87760 15.38110 -19.18010 12.32020 3.58975 9.72873 -13.80760 -27.08660 -0.26724 1.76624 -0.87009 11.76180 1.74453 -10.07630 4.55973 -3.02316 3.62180 27.03470 -8.25181 2.66090 -22.11950 0.07699 -9.72112 -11.49690 4.15823 
